<svg xmlns="http://www.w3.org/2000/svg" viewBox="0 0 241.39 144.61"><defs><style>.cls-1{isolation:isolate;}.cls-2{fill:#fff;}.cls-3{fill:#ce3a2b;}.cls-4{fill:#001583;}.cls-5{mix-blend-mode:multiply;opacity:0.44;}.cls-6{fill:#1d1d1b;}.cls-7{fill:#eeda34;}</style></defs><g class="cls-1"><g id="Capa_2" data-name="Capa 2"><g id="Home_Page" data-name="Home Page"><path class="cls-2" d="M10,144.61a9.19,9.19,0,0,1-7-2.88c-2.29-2.49-3.35-6.42-3-11.08,2-25,2.61-49.54,3.64-73.95q.31-7.26.62-14.3c.34-7.76,3.57-12,10.79-14.07C78.87,9.8,148.46,0,216.39,0c1.65,0,3.32,0,5,.06s3.36.06,5,.06h2.21l1.13,0C234.94.09,240,1.17,240,14.14c0,3.48.18,9.3.38,16,.2,6.57.42,14,.53,20.93l.1,5.6c.19,12.32.38,24,.36,30,0,8.27-1.36,12.32-14.33,13.44C158.9,106,98,112.16,15.66,143.48A16,16,0,0,1,10,144.61Z"></path><path class="cls-3" d="M10.54,141.32a6.76,6.76,0,0,1-5-2.16,9.92,9.92,0,0,1-2.23-7.6c2.09-30.06,3.36-59,4.6-87,.29-6.67,3.23-11.14,8.27-12.61C79.58,13.48,148.81,3.73,216.39,3.73c4,0,8.11,0,12.13.11,5.46.09,8.23,4.1,8.23,11.93,0,13.83.91,57.05.91,71,0,2.63-1.07,8.85-10.91,9.71-58.41,5.15-142.77,17-212.95,44.24A9.31,9.31,0,0,1,10.54,141.32Z"></path><path class="cls-2" d="M34.21,126.31c42.43-12.56,84.15-24.1,189.17-29.32a14.49,14.49,0,0,1-4.74,2.57S80.91,116.43,65.5,119a162.56,162.56,0,0,0-29.15,8.06Z"></path><path class="cls-2" d="M217.22,97.43c9.53-1,18.25-1.39,17.77-13.71,3.56-1.9,5.93,1.62,5.93,1.62l-4.27,9-18,5.21Z"></path><path class="cls-4" d="M234.73,92.6a9.24,9.24,0,0,0,.5-3.27c-.21-6.81-1-20.5-1.79-33.74S231.87,29,231.67,22.34c-.21-7-3.64-12.1-8.34-12.32-1.78-.08-3.36-.24-4.89-.4-1.79-.18-3.48-.36-5.47-.41-6.52-.18-13.17-.27-19.79-.27-56.12,0-112.83,6.34-164,18.34l-.34-1.38C84.81,11.15,151.42,3,216.39,3c4.05,0,8.14,0,12.14.1,7.38.13,8.93,7,8.93,12.65,0,6.9.23,21.38.45,35.38s.46,28.6.46,35.57a9.85,9.85,0,0,1-2.45,6.6L233.51,96Z"></path><path class="cls-2" d="M216.39,3.73c4,0,8.11,0,12.13.11,5.46.09,8.23,4.1,8.23,11.93,0,13.83.91,57.05.91,71a9.11,9.11,0,0,1-2.26,6.12,10,10,0,0,0,.54-3.53c-.41-13.59-3.16-53.74-3.55-67-.23-7.47-3.93-12.78-9-13-3.76-.16-6.58-.71-10.37-.81q-9.81-.27-19.81-.27C139.66,8.23,82.34,14.08,29,26.59,87.88,11.07,154.54,3.73,216.39,3.73m0-1.42c-65,0-131.71,8.13-187.76,22.9L29.32,28C80.46,16,137.12,9.65,193.18,9.65c6.61,0,13.26.09,19.77.27,2,.05,3.64.23,5.42.41,1.54.16,3.13.32,4.93.41,4.31.19,7.47,5,7.66,11.62s1,20.17,1.77,33.27,1.58,26.93,1.79,33.72a8.3,8.3,0,0,1-.46,3l-2.44,6.75,4.83-5.31a10.57,10.57,0,0,0,2.63-7.08c0-7-.23-21.52-.46-35.58s-.45-28.47-.45-35.37c0-6-1.67-13.22-9.62-13.36-4-.07-8.1-.1-12.16-.1Z"></path><g class="cls-5"><path class="cls-6" d="M126.71,67.32c3.42-.52,6.88-1,10.29-1.47a5,5,0,0,0,3.07-1.63,4.77,4.77,0,0,0,1.31-3.17l.05-3-.55.07-.81.1,0,1a4.73,4.73,0,0,1-1.31,3.17A5,5,0,0,1,135.67,64c-3.4.45-6.86.95-10.28,1.47l-.24,8.64,1.38-.21Z"></path><path class="cls-6" d="M95.94,78.84c.47-.11,1-.2,1.42-.3l1.33-28.63-.6.11-.83.17Z"></path><path class="cls-6" d="M145.18,48.76l-.4.05c-6.32.67-12.7,1.47-19,2.38l-.19,7,1.38-.2.14-4.89c6.29-.91,12.68-1.71,19-2.39l.4,0,.11-7.11-.54.06-.81.09Z"></path><path class="cls-6" d="M192.2,66.22a15.44,15.44,0,0,1-1.52-7c-.06-3.86.75-6.85,2.4-8.9a8.54,8.54,0,0,1,7.06-3h.51a9.05,9.05,0,0,1,6.47,2.84,11.21,11.21,0,0,0-1.14-1.7,9.06,9.06,0,0,0-6.65-3h-.51a8.52,8.52,0,0,0-7.06,3c-1.65,2-2.46,5-2.41,8.9s1,6.83,2.69,8.77Z"></path><path class="cls-6" d="M156.88,70,157,49.45q3.32-.29,6.63-.52c2.69-.19,4.7.45,6.05,1.83a6.82,6.82,0,0,0-.95-1.51c-1.33-1.66-3.49-2.39-6.42-2.18q-3.32.24-6.63.52l-.18,22.51Z"></path><path class="cls-6" d="M58.19,86.53a15.27,15.27,0,0,1-.87-7.33,20.74,20.74,0,0,1,3.37-10.65,13.28,13.28,0,0,1,7.74-5.39,10.48,10.48,0,0,1,3.07-.37,5.72,5.72,0,0,1,3.77,1.5,7.05,7.05,0,0,0-1.09-1.65,5.63,5.63,0,0,0-4-1.71,10.44,10.44,0,0,0-3.07.37,13.33,13.33,0,0,0-7.75,5.39A20.87,20.87,0,0,0,56,77.34c-.3,4.28.35,7.29,1.93,9Z"></path><path class="cls-6" d="M179.56,57.25a24.84,24.84,0,0,1-1.46,8.93,16.72,16.72,0,0,1-4.63,6.61,17.37,17.37,0,0,1-5.23,3,33.91,33.91,0,0,1-8.05,1.46c-3.94.38-7.92.81-11.85,1.27l0,2,.55-.06c4.19-.5,8.45-1,12.65-1.36a34,34,0,0,0,8.06-1.46,17.2,17.2,0,0,0,5.22-3A16.62,16.62,0,0,0,179.42,68a25.1,25.1,0,0,0,1.47-8.93c0-5.62-1.35-9.94-3.84-12.92A22.34,22.34,0,0,1,179.56,57.25Z"></path><path class="cls-6" d="M145.61,73.27l-.8.1-.09,5.88-.4,0c-8.87,1.12-17.84,2.5-26.68,4.08l-.07,2.1.58-.11c9.11-1.64,18.36-3.06,27.5-4.21l.39,0,.12-7.91Z"></path><path class="cls-6" d="M218.58,59.21a21,21,0,0,0-4.37-12.81,22,22,0,0,1,3,11c.19,5.74-1.3,10.39-4.43,13.8s-7.71,5.1-13.32,5.2c-.55,0-1.08,0-1.6,0-5-.21-9-1.82-12-4.81-.33-.33-.62-.68-.92-1a15.91,15.91,0,0,0,2.24,2.9c3,3,7,4.6,12,4.81.52,0,1.06,0,1.6,0,5.62-.1,10.1-1.85,13.32-5.21S218.78,65,218.58,59.21Z"></path><path class="cls-6" d="M114.39,77.28l-.21,6-.36.07c-8.53,1.59-17.16,3.42-25.68,5.44L88,90.93l.62-.15c8.78-2.09,17.69-4,26.49-5.62l.36-.07.28-8.07-.58.1Z"></path><path class="cls-6" d="M35.56,58.35c-3.2,1-7.86,2.7-11,3.77l-.21,2.37.69-.24c3-1,7.42-2.6,10.41-3.56Z"></path><path class="cls-6" d="M61,52.75l.53-7.69-.65.18-.83.23-.38,5.42-.3.09c-5,1.47-10.06,3.05-15.09,4.69l-2.7,47-.29.1c-2.39.8-4.77,1.61-7.16,2.44L34,107.54l.68-.24c2.64-.92,5.29-1.83,7.94-2.71l.3-.1,2.69-47c5-1.64,10.11-3.22,15.09-4.69Z"></path><path class="cls-6" d="M85.08,69.72A28.62,28.62,0,0,1,79.2,86.08a27.54,27.54,0,0,1-14.27,9.38,22.15,22.15,0,0,1-6.87,1,10.87,10.87,0,0,1-6.93-2.59,9.59,9.59,0,0,1-.75-.81,10.36,10.36,0,0,0,2.08,2.67,10.82,10.82,0,0,0,6.93,2.59,22.12,22.12,0,0,0,6.86-1,27.43,27.43,0,0,0,14.27-9.37A28.62,28.62,0,0,0,86.4,71.58c.31-5.66-.86-10-3.45-13.06Q85.44,62.83,85.08,69.72Z"></path></g><path class="cls-2" d="M58.36,49.05l.53-7.69-.65.18c-10.09,2.79-21.33,6.65-31.28,10a7.17,7.17,0,0,0-4.58,5.76l-.31,3.57.69-.23c3.45-1.17,8-3.05,11.51-4.16l-2.92,47.33.68-.24c2.64-.92,5.29-1.83,7.95-2.71l.29-.1,2.69-47c5-1.64,10.11-3.22,15.09-4.69ZM94.65,77l1.43-30.79-.61.12c-1.26.24-2.52.5-3.79.76A5.47,5.47,0,0,0,88.6,49a5.37,5.37,0,0,0-1.39,3.29l-1.79,35,.63-.14c8.77-2.1,17.68-4,26.48-5.63l.36-.07.28-8.07-.58.1C106.62,74.51,100.58,75.71,94.65,77ZM66,51.68A25.77,25.77,0,0,0,52,60.93a31.31,31.31,0,0,0-6,16.82c-.49,6.62.83,11.41,3.93,14.22a10.78,10.78,0,0,0,6.93,2.6,22.39,22.39,0,0,0,6.86-.95,27.5,27.5,0,0,0,14.27-9.38A28.67,28.67,0,0,0,83.8,67.88c.33-6.25-1.11-10.94-4.3-14C76.08,51,71.55,50.27,66,51.68Zm9,18a20,20,0,0,1-3.37,10.45,14.23,14.23,0,0,1-7.86,5.51c-3.27.91-5.62.53-7.18-1.19s-2.24-4.67-1.93-9a20.74,20.74,0,0,1,3.37-10.65,13.28,13.28,0,0,1,7.74-5.39,10.48,10.48,0,0,1,3.07-.37,5.7,5.7,0,0,1,4,1.71C74.56,62.67,75.28,65.66,75.05,69.68ZM216,55.51c-.19-5.7-2-10.37-5.29-13.9a18.43,18.43,0,0,0-13.31-5.26,17.4,17.4,0,0,0-13.18,5.22c-3.13,3.49-4.69,8.25-4.63,14.14s1.75,10.65,5,14c3,3,7.05,4.6,12.05,4.81.52,0,1.06,0,1.6,0,5.62-.09,10.1-1.84,13.32-5.19S216.17,61.25,216,55.51Zm-10.8,8.56a10.14,10.14,0,0,1-14.41.17c-1.73-1.94-2.63-4.89-2.69-8.77s.75-6.85,2.4-8.9a8.55,8.55,0,0,1,7.06-3H198a9.06,9.06,0,0,1,6.65,3,14,14,0,0,1,2.87,8.8C207.67,59,206.87,62,205.17,64.07ZM143,69.57c-6.32.77-12.75,1.67-19.14,2.69l.24-8.64c3.42-.52,6.88-1,10.29-1.47a5,5,0,0,0,3.07-1.63,4.82,4.82,0,0,0,1.31-3.17l0-3-.55.07c-4.61.56-9.3,1.19-14,1.89l.2-7c6.29-.9,12.68-1.7,19-2.38l.4,0,.11-7.11-.54.06c-7.65.78-15.38,1.75-23,2.88a5,5,0,0,0-3.06,1.67,4.9,4.9,0,0,0-1.34,3.18L115,81.78l.58-.11c9.11-1.64,18.36-3.06,27.5-4.21l.39,0,.12-7.91ZM161,38.1c-3.46.24-7,.52-10.54.83a4.6,4.6,0,0,0-3,1.48,4.38,4.38,0,0,0-1.28,3.07l-.44,33.36.55-.06c4.19-.5,8.45-1,12.65-1.35A34.43,34.43,0,0,0,167,74a17.2,17.2,0,0,0,5.22-3,16.52,16.52,0,0,0,4.63-6.61,25.06,25.06,0,0,0,1.47-8.93c-.05-6-1.52-10.59-4.39-13.57S166.65,37.73,161,38.1Zm6.41,26.39h0c-1.55,1.84-4.07,2.93-7.48,3.23q-2.82.24-5.66.53l.18-22.51q3.31-.28,6.63-.52c2.93-.21,5.09.52,6.42,2.18s2.14,4.5,2.15,8.39C169.64,59.86,168.89,62.79,167.4,64.49Z"></path><path class="cls-2" d="M216.72,31.69a4,4,0,0,1,1.91.59,3.56,3.56,0,0,1,1.44,1.51,4,4,0,0,1,.5,2,3.88,3.88,0,0,1-.55,1.92,3.51,3.51,0,0,1-1.47,1.39,3.88,3.88,0,0,1-2,.44,4.08,4.08,0,0,1-1.94-.6,3.76,3.76,0,0,1-1.42-1.51,3.92,3.92,0,0,1,.06-3.9,3.5,3.5,0,0,1,1.49-1.39A4.09,4.09,0,0,1,216.72,31.69Zm0,.65a3.29,3.29,0,0,0-1.61.36,2.91,2.91,0,0,0-1.25,1.16,3.15,3.15,0,0,0-.46,1.61,3.32,3.32,0,0,0,.4,1.64A3.21,3.21,0,0,0,215,38.37a3.37,3.37,0,0,0,1.62.5,3.32,3.32,0,0,0,1.63-.36,3,3,0,0,0,1.23-1.16,3.22,3.22,0,0,0,.46-1.61,3.42,3.42,0,0,0-.41-1.65,3.12,3.12,0,0,0-1.21-1.26A3.35,3.35,0,0,0,216.71,32.34ZM214.9,37.7l.07-4.21,1.45.06a3.48,3.48,0,0,1,1.07.16,1.09,1.09,0,0,1,.52.43,1.11,1.11,0,0,1-.15,1.42,1.31,1.31,0,0,1-.88.34,1.35,1.35,0,0,1,.35.24,4.76,4.76,0,0,1,.61.86l.5.85-.83,0-.36-.68a3.64,3.64,0,0,0-.7-1A.89.89,0,0,0,216,36l-.4,0,0,1.79Zm.72-2.34.82,0a1.33,1.33,0,0,0,.82-.14.56.56,0,0,0,.22-.46.59.59,0,0,0-.1-.34.63.63,0,0,0-.28-.23,2.29,2.29,0,0,0-.69-.1l-.77,0Z"></path><path class="cls-2" d="M10.51,51c.35-12.44-.36-18.53,15.64-22.09-1.78-2.13-7.11-1-7.11-1L8.73,31.45Z"></path><path class="cls-7" d="M10.54,142.15a7.59,7.59,0,0,1-5.62-2.42,10.78,10.78,0,0,1-2.46-8.23c2.09-30.06,3.37-59,4.61-87A17.13,17.13,0,0,1,9.42,36l1.87-3L11,36.56c-.07.69-.1,1.33-.11,2-.08,11.13.05,22.13.18,32.77.2,16.31.4,33.18-.16,51.09a10,10,0,0,0,2.12,7,5.87,5.87,0,0,0,4.16,2h.26a7.27,7.27,0,0,0,2.44-.45c51.51-19,101.29-24.64,161-30l.18,1.66c-66.71,8-118.2,20-167,38.88A10,10,0,0,1,10.54,142.15Z"></path><path class="cls-2" d="M10.12,36.48c-.06.66-.1,1.33-.1,2-.22,28.14,1,54.23,0,83.84a10.86,10.86,0,0,0,2.34,7.57,6.7,6.7,0,0,0,4.74,2.31h.3a7.87,7.87,0,0,0,2.72-.51c52.87-19.49,105.66-25,160.82-30-54.18,6.48-110.2,16.84-167.15,38.94a9.31,9.31,0,0,1-3.26.65,6.76,6.76,0,0,1-5-2.16,9.92,9.92,0,0,1-2.23-7.6c2.09-30.06,3.36-59,4.6-87a16.46,16.46,0,0,1,2.22-8m2.33-6.86-3.74,6a18,18,0,0,0-2.48,8.84c-1.23,28-2.51,57-4.6,87a11.61,11.61,0,0,0,2.68,8.87A8.44,8.44,0,0,0,10.54,143a10.65,10.65,0,0,0,3.85-.77c48.69-18.89,100.12-30.86,166.75-38.83l-.34-3.32c-27.52,2.49-54.44,5.1-81.39,9.58-29.67,4.93-55.79,11.64-79.85,20.51a6.33,6.33,0,0,1-2.15.41h-.23a5,5,0,0,1-3.56-1.75,9.17,9.17,0,0,1-1.92-6.4c.57-17.93.37-34.81.17-51.13-.13-10.64-.27-21.64-.18-32.75,0-.61,0-1.23.1-1.89l.66-7Z"></path></g></g></g></svg>